<svg xmlns="http://www.w3.org/2000/svg" viewBox="0 0 64 56"><defs><style>.cls-1{fill:#78909c;}.cls-2{fill:#ebeff1;}.cls-3{fill:#cfd8dd;}</style></defs><title>Animal Panda</title><g id="Layer_2" data-name="Layer 2"><g id="Layer_1-2" data-name="Layer 1"><circle class="cls-1" cx="51" cy="13" r="13"/><circle class="cls-1" cx="13" cy="13" r="13"/><path class="cls-2" d="M64,36A32,32,0,0,0,0,36C0,53.67,14.33,56,32,56S64,53.67,64,36Z"/><path class="cls-1" d="M18.21,22C22.07,22,24,26.23,24,30.46S16.28,45.27,8.57,36.81,12.43,22,18.21,22Z"/><path class="cls-1" d="M45.79,22C41.93,22,40,26.23,40,30.46s7.72,14.81,15.43,6.35S51.57,22,45.79,22Z"/><circle class="cls-2" cx="18" cy="28" r="2"/><circle class="cls-2" cx="46" cy="28" r="2"/><path class="cls-3" d="M36.63,47.85A6.22,6.22,0,0,1,32,45.77a6.19,6.19,0,0,1-6.56,1.77l-1.76-.59a1,1,0,1,1,.63-1.9l1.76.59a4.18,4.18,0,0,0,5-2.08,1,1,0,0,1,1.79,0,4.18,4.18,0,0,0,5,2.08l1.76-.59a1,1,0,0,1,.63,1.9l-1.76.59A6.07,6.07,0,0,1,36.63,47.85Z"/><path class="cls-1" d="M40,38c0-2.21-3.58-2-8-2s-8-.21-8,2,3.58,6,8,6S40,40.21,40,38Z"/></g></g></svg>