<svg width="87" height="96" viewBox="0 0 87 96" fill="none" xmlns="http://www.w3.org/2000/svg">
<path d="M39.9738 5.26397C39.6244 4.93634 39.2749 4.69607 38.9472 4.52134C38.6196 4.36844 38.2483 4.28107 37.8333 4.28107C37.3528 4.28107 37.0033 4.39028 36.763 4.58686C36.5228 4.78344 36.3917 5.11108 36.3917 5.54792C36.3917 5.85371 36.5228 6.13766 36.7849 6.33424C37.047 6.55266 37.3528 6.74924 37.7459 6.94582C38.1391 7.1424 38.5541 7.33898 38.9909 7.5574C39.4278 7.77582 39.8428 8.01609 40.2359 8.32188C40.6291 8.62767 40.9349 8.97715 41.197 9.41399C41.4591 9.85083 41.5902 10.375 41.5902 10.9866C41.5902 11.9258 41.3281 12.734 40.8257 13.4111C40.3233 14.0882 39.537 14.5251 38.5322 14.7653V16.8185H36.632V14.8527C36.0641 14.7872 35.4525 14.6343 34.8191 14.3722C34.1856 14.1101 33.6396 13.7824 33.1809 13.3674L34.4478 11.4235C34.9501 11.7948 35.4307 12.0787 35.8675 12.2753C36.3262 12.4719 36.7849 12.5593 37.2436 12.5593C37.7896 12.5593 38.2046 12.4501 38.4449 12.2316C38.707 12.0132 38.838 11.6637 38.838 11.2051C38.838 10.8556 38.707 10.5716 38.4449 10.3314C38.1828 10.0911 37.877 9.87268 37.4838 9.65425C37.0907 9.43583 36.6757 9.21741 36.2388 8.99899C35.802 8.78057 35.387 8.51846 34.9938 8.21267C34.6007 7.90688 34.2949 7.5574 34.0328 7.1424C33.7706 6.7274 33.6396 6.24687 33.6396 5.65713C33.6396 4.69607 33.9017 3.88791 34.4259 3.25449C34.9501 2.62106 35.6928 2.20606 36.6101 2.03132V0H38.5104V1.98764C39.1438 2.07501 39.6899 2.27159 40.1704 2.55554C40.6509 2.83949 41.0659 3.18896 41.4591 3.60396L39.9738 5.26397Z" fill="#333B41"/>
<path fill-rule="evenodd" clip-rule="evenodd" d="M87 76.0004L83.4063 73.7889L75.3895 88.1638L79.2597 90.0989L87 76.0004Z" fill="#333B41"/>
<path fill-rule="evenodd" clip-rule="evenodd" d="M81.4707 73.2356C72.0717 62.4544 63.7785 65.2188 52.7209 72.4062C43.0454 78.7644 35.858 74.3413 28.6705 77.3822C27.0119 78.2115 24.5239 80.1466 26.7354 82.0817C27.8412 82.911 32.2642 83.7403 33.6464 83.4639C41.1103 81.8052 43.3219 85.1225 54.6559 82.911C51.3387 85.399 40.5575 83.7403 33.9229 84.5696C28.6705 85.6754 20.1008 81.5288 27.0119 76.8293C23.971 75.4471 21.2066 74.6178 17.8893 74.3413C14.572 71.8534 9.31965 68.8125 6.55525 67.7067C4.34372 66.3245 -1.1851 66.8774 2.40863 70.4712C6.00236 73.7884 15.6778 81.2523 17.6129 82.3581C25.3532 87.0576 32.5407 90.3749 40.0046 94.5215C40.0046 94.5215 42.4926 95.9037 47.4685 93.9686C51.0622 92.31 67.0958 83.4639 70.966 84.8461C73.1775 85.6754 74.2832 86.2283 74.2832 86.2283L81.4707 73.2356Z" stroke="#333B41" stroke-width="1.5"/>
<path fill-rule="evenodd" clip-rule="evenodd" d="M34.7528 72.4061C35.3057 71.3003 35.8586 70.471 36.6879 70.1946C37.5172 69.9181 37.7937 70.471 38.3465 71.0239C38.8994 71.8532 39.1759 72.1297 40.0052 72.6825C40.2816 72.959 40.8345 72.959 41.1109 72.959L40.5581 72.6825C39.7287 72.1297 39.1759 71.5768 39.4523 70.471C39.4523 70.1946 39.1759 69.6417 39.7287 69.6417C40.2816 69.9181 41.1109 70.471 41.9403 70.471C41.9403 70.471 42.7696 70.7475 42.4931 70.471C42.4931 70.1946 41.9403 69.9181 41.6638 69.6417C40.0052 68.2595 40.0052 67.983 40.0052 66.048C40.2816 63.2836 39.1759 61.072 37.2408 59.1369C32.8177 54.7139 34.7528 48.6322 38.0701 42.8269C41.1109 37.5746 43.8753 36.7452 40.8345 30.3871C39.7287 27.6227 37.7937 24.8583 37.5172 23.1996C37.5172 22.6468 37.5172 22.9232 37.5172 23.1996C37.2408 24.8583 38.3465 27.3463 39.4523 29.8342C41.9403 35.363 41.3874 35.9159 37.7937 40.8918C33.9235 45.8678 31.1591 51.1202 32.8177 56.649C33.9235 60.5191 39.4523 64.3893 36.6879 66.8773C35.3057 67.983 33.3706 70.7475 33.0942 72.4061C32.8177 73.2354 32.8177 73.2354 32.5413 73.7883C32.2648 74.0647 32.5413 74.0647 32.8177 74.0647C34.1999 73.7883 34.1999 73.2354 34.7528 72.4061Z" fill="#333B41"/>
<mask id="path-5-inside-1_43755_157" fill="white">
<path d="M41.1106 62.178C48.0216 62.178 53.5504 53.3319 53.274 47.2502C45.5337 49.4617 41.1106 51.6732 40.2813 54.9905C39.7284 56.6492 40.0048 57.7549 41.387 58.0314C42.2164 57.7549 44.4279 54.1612 48.5745 52.5026C44.9808 55.8198 44.4279 57.7549 41.387 60.5193H41.1106C40.0048 59.9665 38.8991 59.1371 38.6226 58.0314C38.0698 56.9256 38.0698 55.5434 38.3462 54.1612C39.452 51.1203 42.4928 48.6324 47.7452 46.6973C50.5096 45.868 52.9976 44.7622 55.762 44.7622C54.6562 50.8439 53.8269 55.8198 50.2331 59.69C45.8101 64.1131 41.387 62.178 41.1106 62.178Z"/>
</mask>
<path d="M41.1106 62.178C48.0216 62.178 53.5504 53.3319 53.274 47.2502C45.5337 49.4617 41.1106 51.6732 40.2813 54.9905C39.7284 56.6492 40.0048 57.7549 41.387 58.0314C42.2164 57.7549 44.4279 54.1612 48.5745 52.5026C44.9808 55.8198 44.4279 57.7549 41.387 60.5193H41.1106C40.0048 59.9665 38.8991 59.1371 38.6226 58.0314C38.0698 56.9256 38.0698 55.5434 38.3462 54.1612C39.452 51.1203 42.4928 48.6324 47.7452 46.6973C50.5096 45.868 52.9976 44.7622 55.762 44.7622C54.6562 50.8439 53.8269 55.8198 50.2331 59.69C45.8101 64.1131 41.387 62.178 41.1106 62.178Z" stroke="#333B41" stroke-width="3" mask="url(#path-5-inside-1_43755_157)"/>
<mask id="path-6-inside-2_43755_157" fill="white">
<path d="M33.9234 41.1681C27.8417 41.4445 23.1422 33.7042 23.4186 28.4518C30.0532 30.3869 33.9234 32.322 34.7527 35.0864C35.3056 36.4686 34.7527 37.5744 33.6469 37.8508C32.8176 37.5744 30.8825 34.5335 27.2888 33.1513C30.6061 35.9157 31.159 37.5744 33.6469 40.0623L33.9234 39.7859C35.0291 39.5095 35.8585 38.9566 36.1349 37.8508C36.6878 36.745 36.6878 35.6393 36.1349 34.5335C35.3056 31.7691 32.8176 29.5576 28.1181 28.1754C25.6301 27.3461 23.6951 26.5167 21.2071 26.2403C22.3129 31.4927 22.8657 35.9157 26.183 39.233C29.7768 43.1032 33.6469 41.4445 33.9234 41.1681Z"/>
</mask>
<path d="M33.9234 41.1681C27.8417 41.4445 23.1422 33.7042 23.4186 28.4518C30.0532 30.3869 33.9234 32.322 34.7527 35.0864C35.3056 36.4686 34.7527 37.5744 33.6469 37.8508C32.8176 37.5744 30.8825 34.5335 27.2888 33.1513C30.6061 35.9157 31.159 37.5744 33.6469 40.0623L33.9234 39.7859C35.0291 39.5095 35.8585 38.9566 36.1349 37.8508C36.6878 36.745 36.6878 35.6393 36.1349 34.5335C35.3056 31.7691 32.8176 29.5576 28.1181 28.1754C25.6301 27.3461 23.6951 26.5167 21.2071 26.2403C22.3129 31.4927 22.8657 35.9157 26.183 39.233C29.7768 43.1032 33.6469 41.4445 33.9234 41.1681Z" stroke="#333B41" stroke-width="3" mask="url(#path-6-inside-2_43755_157)"/>
<mask id="path-7-inside-3_43755_157" fill="white">
<path d="M44.1509 31.4934C49.1269 31.4934 53.2735 25.1353 53.2735 20.4358C47.1918 22.0944 44.1509 23.753 43.3216 26.241C43.0452 27.3468 43.3216 28.1761 44.1509 28.4525C44.9803 28.4525 46.6389 25.6881 49.6798 24.3059C46.9153 26.7939 46.3625 28.1761 44.1509 30.3876C43.0452 30.1112 42.4923 29.2819 42.2159 28.4525C41.663 27.6232 41.663 26.5175 41.9394 25.6881C42.7687 23.2002 44.9803 21.5415 48.8504 20.1593C51.062 19.33 52.997 18.7771 54.9321 18.5007C54.1028 22.9237 53.5499 26.7939 50.7855 29.8347C47.4682 33.152 44.1509 31.4934 44.1509 31.4934Z"/>
</mask>
<path d="M44.1509 31.4934C49.1269 31.4934 53.2735 25.1353 53.2735 20.4358C47.1918 22.0944 44.1509 23.753 43.3216 26.241C43.0452 27.3468 43.3216 28.1761 44.1509 28.4525C44.9803 28.4525 46.6389 25.6881 49.6798 24.3059C46.9153 26.7939 46.3625 28.1761 44.1509 30.3876C43.0452 30.1112 42.4923 29.2819 42.2159 28.4525C41.663 27.6232 41.663 26.5175 41.9394 25.6881C42.7687 23.2002 44.9803 21.5415 48.8504 20.1593C51.062 19.33 52.997 18.7771 54.9321 18.5007C54.1028 22.9237 53.5499 26.7939 50.7855 29.8347C47.4682 33.152 44.1509 31.4934 44.1509 31.4934Z" stroke="#333B41" stroke-width="3" mask="url(#path-7-inside-3_43755_157)"/>
</svg>
